<?xml version="1.0" standalone="no"?>
<!DOCTYPE svg PUBLIC "-//W3C//DTD SVG 20010904//EN"
 "http://www.w3.org/TR/2001/REC-SVG-20010904/DTD/svg10.dtd">
<svg version="1.0" xmlns="http://www.w3.org/2000/svg"
 width="512.000000pt" height="512.000000pt" viewBox="0 0 512.000000 512.000000"
 preserveAspectRatio="xMidYMid meet">

<g transform="translate(0.000000,512.000000) scale(0.100000,-0.100000)"
fill="#dc3643" stroke="none">
<path d="M294 4030 c-101 -36 -189 -109 -239 -198 -53 -94 -55 -120 -55 -733
0 -341 4 -588 10 -620 33 -175 183 -314 367 -340 40 -6 572 -8 1305 -7 l1238
3 32 32 c31 32 31 33 38 160 6 117 9 136 38 198 24 50 51 86 102 135 l70 67
20 100 c45 227 127 380 281 529 249 241 598 327 919 229 173 -54 173 -53 205
-41 17 7 39 28 50 48 17 33 18 43 8 103 -28 165 -141 292 -302 341 -39 12
-357 14 -2041 13 -1899 0 -1997 -1 -2046 -19z m525 -651 c23 -22 31 -40 31
-65 0 -38 2 -39 33 -22 55 29 136 -8 152 -69 9 -37 -11 -85 -46 -109 l-30 -21
25 -17 c42 -27 60 -72 47 -116 -15 -52 -44 -75 -94 -74 -23 0 -52 4 -64 8 -21
7 -23 5 -23 -21 0 -58 -65 -107 -127 -95 -37 7 -72 47 -79 90 -6 39 -6 40 -33
26 -75 -40 -151 11 -151 102 0 29 7 43 33 67 l32 30 -32 33 c-26 25 -33 40
-33 72 0 76 75 127 145 98 l33 -14 6 38 c14 86 115 120 175 59z m845 10 c15
-12 31 -38 37 -64 l11 -43 33 14 c37 15 85 6 116 -22 42 -38 32 -129 -18 -161
l-25 -16 30 -29 c17 -15 34 -37 37 -49 21 -66 -39 -144 -104 -136 -20 2 -44 7
-53 11 -13 6 -18 1 -23 -27 -22 -118 -188 -118 -210 0 -5 28 -10 33 -23 27 -9
-4 -33 -9 -53 -11 -65 -8 -125 70 -104 136 3 12 20 34 37 49 l30 29 -25 16
c-50 32 -60 123 -18 161 31 28 79 37 116 22 l33 -14 11 43 c14 54 50 85 101
85 23 0 48 -8 64 -21z m855 -5 c21 -17 33 -38 37 -64 l6 -38 33 14 c70 29 145
-22 145 -98 0 -32 -7 -47 -32 -72 l-33 -33 33 -30 c89 -83 -11 -225 -119 -169
-27 14 -27 13 -33 -26 -7 -43 -42 -83 -79 -90 -62 -12 -127 37 -127 95 0 26
-2 28 -22 21 -13 -4 -42 -8 -65 -8 -50 -1 -79 22 -94 74 -13 44 5 89 47 116
l25 17 -30 21 c-35 24 -55 72 -46 109 16 61 97 98 152 69 31 -17 33 -16 33 22
0 25 8 43 31 65 40 41 94 43 138 5z"/>
<path d="M3980 3389 c-212 -55 -380 -188 -480 -381 -52 -98 -78 -202 -86 -337
l-7 -108 -41 -11 c-65 -17 -108 -52 -138 -111 l-28 -55 0 -565 c0 -364 4 -579
11 -604 13 -49 63 -105 114 -128 38 -17 87 -19 835 -19 748 0 797 2 835 19 51
23 101 79 114 128 7 25 11 240 11 604 l0 565 -27 55 c-31 59 -74 94 -139 111
l-41 11 -7 108 c-11 191 -67 343 -175 474 -175 213 -486 314 -751 244z m280
-421 c80 -25 156 -93 191 -173 17 -36 24 -75 27 -142 l4 -93 -322 0 -322 0 4
93 c5 111 30 176 91 235 93 90 205 117 327 80z m13 -870 c117 -79 131 -244 29
-330 -28 -23 -30 -30 -34 -117 -4 -87 -6 -94 -35 -123 -25 -25 -40 -31 -73
-31 -33 0 -48 6 -73 31 -29 29 -31 36 -35 123 -4 87 -6 94 -34 117 -88 74 -91
217 -7 301 47 47 87 62 159 59 50 -3 74 -9 103 -30z"/>
</g>
</svg>
